<svg xmlns="http://www.w3.org/2000/svg" viewBox="0 0 16 16" fill="#000000" aria-hidden="true" id="Home--Streamline-Heroicons" height="16" width="16"><desc>Home Streamline Icon: https://streamlinehq.com</desc><path d="M7.6466666666666665 2.5606666666666666a0.5 0.5 0 0 1 0.7066666666666667 0l5.793333333333333 5.793333333333333a0.5 0.5 0 1 0 0.7066666666666667 -0.7073333333333333l-5.792666666666666 -5.793333333333333a1.5 1.5 0 0 0 -2.1213333333333333 0l-5.793333333333333 5.793333333333333a0.5 0.5 0 1 0 0.7073333333333333 0.7066666666666667l5.793333333333333 -5.792666666666666Z" stroke-width="0.6667"></path><path d="m8 3.6213333333333333 5.439333333333334 5.439333333333334c0.019999999999999997 0.019999999999999997 0.039999999999999994 0.03866666666666667 0.06066666666666666 0.057333333333333326v4.132c0 0.69 -0.5599999999999999 1.25 -1.25 1.25H10a0.5 0.5 0 0 1 -0.5 -0.5v-3a0.5 0.5 0 0 0 -0.5 -0.5h-2a0.5 0.5 0 0 0 -0.5 0.5V14a0.5 0.5 0 0 1 -0.5 0.5H3.75a1.25 1.25 0 0 1 -1.25 -1.25v-4.132a1.5266666666666666 1.5266666666666666 0 0 0 0.06066666666666666 -0.057333333333333326L8 3.6213333333333333Z" stroke-width="0.6667"></path></svg>